Sprint_04500001_forces_filt12Hz.mot
version=1
nRows=33
nColumns=19
inDegrees=yes
endheader
time	R_ground_force_vx	R_ground_force_vy	R_ground_force_vz	R_ground_force_px	R_ground_force_py	R_ground_force_pz	R_ground_torque_x	R_ground_torque_y	R_ground_torque_z	L_ground_force_vx	L_ground_force_vy	L_ground_force_vz	L_ground_force_px	L_ground_force_py	L_ground_force_pz	L_ground_torque_x	L_ground_torque_y	L_ground_torque_z	
0.981000	  0.000000	  0.000000	  0.000000	  0.714586	  0.000000	 -0.280684	  0.000000	  0.000000	  0.000000	307.181144	505.494137	-70.202687	  0.376074	  0.011500	 -0.376612	  0.000000	 39.152434	  0.000000
0.981500	  0.000000	  0.000000	  0.000000	  0.716553	  0.000000	 -0.281011	  0.000000	  0.000000	  0.000000	302.429848	490.138899	-68.475886	  0.371875	  0.011500	 -0.376751	  0.000000	 37.802668	  0.000000
0.982000	  0.000000	  0.000000	  0.000000	  0.718521	  0.000000	 -0.281337	  0.000000	  0.000000	  0.000000	297.510032	474.981103	-66.637142	  0.367778	  0.011500	 -0.376868	  0.000000	 36.367319	  0.000000
0.982500	  0.000000	  0.000000	  0.000000	  0.720488	  0.000000	 -0.281663	  0.000000	  0.000000	  0.000000	292.427320	460.020862	-64.696768	  0.363787	  0.011500	 -0.376964	  0.000000	 34.855402	  0.000000
0.983000	  0.000000	  0.000000	  0.000000	  0.722455	  0.000000	 -0.281989	  0.000000	  0.000000	  0.000000	287.188182	445.258298	-62.665587	  0.359907	  0.011500	 -0.377039	  0.000000	 33.276543	  0.000000
0.983500	  0.000000	  0.000000	  0.000000	  0.724423	  0.000000	 -0.282315	  0.000000	  0.000000	  0.000000	281.799907	430.693594	-60.554860	  0.356140	  0.011500	 -0.377092	  0.000000	 31.640879	  0.000000
0.984000	  0.000000	  0.000000	  0.000000	  0.726390	  0.000000	 -0.282642	  0.000000	  0.000000	  0.000000	276.270556	416.327033	-58.376215	  0.352488	  0.011500	 -0.377126	  0.000000	 29.958942	  0.000000
0.984500	  0.000000	  0.000000	  0.000000	  0.728358	  0.000000	 -0.282968	  0.000000	  0.000000	  0.000000	270.608908	402.159044	-56.141556	  0.348954	  0.011500	 -0.377141	  0.000000	 28.241519	  0.000000
0.985000	  0.000000	  0.000000	  0.000000	  0.730325	  0.000000	 -0.283294	  0.000000	  0.000000	  0.000000	264.824413	388.190224	-53.862966	  0.345539	  0.011500	 -0.377140	  0.000000	 26.499507	  0.000000
0.985500	  0.000000	  0.000000	  0.000000	  0.732317	  0.000000	 -0.283507	  0.000000	  0.000000	  0.000000	258.927132	374.421371	-51.552588	  0.342242	  0.011500	 -0.377123	  0.000000	 24.743750	  0.000000
0.986000	  0.000000	  0.000000	  0.000000	  0.734310	  0.000000	 -0.283721	  0.000000	  0.000000	  0.000000	252.927683	360.853489	-49.222484	  0.339064	  0.011500	 -0.377093	  0.000000	 22.984889	  0.000000
0.986500	  0.000000	  0.000000	  0.000000	  0.736302	  0.000000	 -0.283934	  0.000000	  0.000000	  0.000000	246.837176	347.487800	-46.884490	  0.336004	  0.011500	 -0.377052	  0.000000	 21.233210	  0.000000
0.987000	  0.000000	  0.000000	  0.000000	  0.738295	  0.000000	 -0.284148	  0.000000	  0.000000	  0.000000	240.667140	334.325759	-44.550071	  0.333062	  0.011500	 -0.377002	  0.000000	 19.498498	  0.000000
0.987500	  0.000000	  0.000000	  0.000000	  0.740287	  0.000000	 -0.284361	  0.000000	  0.000000	  0.000000	234.429438	321.369068	-42.230184	  0.330235	  0.011500	 -0.376946	  0.000000	 17.789916	  0.000000
0.988000	  0.000000	  0.000000	  0.000000	  0.742279	  0.000000	 -0.284574	  0.000000	  0.000000	  0.000000	228.136181	308.619721	-39.935173	  0.327522	  0.011500	 -0.376885	  0.000000	 16.115879	  0.000000
0.988500	  0.000000	  0.000000	  0.000000	  0.744272	  0.000000	 -0.284788	  0.000000	  0.000000	  0.000000	221.799632	296.080051	-37.674684	  0.324921	  0.011500	 -0.376820	  0.000000	 14.483972	  0.000000
0.989000	  0.000000	  0.000000	  0.000000	  0.746264	  0.000000	 -0.285001	  0.000000	  0.000000	  0.000000	215.432114	283.752796	-35.457621	  0.322428	  0.011500	 -0.376753	  0.000000	 12.900872	  0.000000
0.989500	  0.000000	  0.000000	  0.000000	  0.748257	  0.000000	 -0.285215	  0.000000	  0.000000	  0.000000	209.045926	271.641163	-33.292125	  0.320041	  0.011500	 -0.376684	  0.000000	 11.372319	  0.000000
0.990000	  0.000000	  0.000000	  0.000000	  0.750249	  0.000000	 -0.285428	  0.000000	  0.000000	  0.000000	202.653276	259.748888	-31.185589	  0.317756	  0.011500	 -0.376614	  0.000000	  9.903113	  0.000000
0.990500	  0.000000	  0.000000	  0.000000	  0.752279	  0.000000	 -0.285624	  0.000000	  0.000000	  0.000000	196.266227	248.080277	-29.144689	  0.315570	  0.011500	 -0.376544	  0.000000	  8.497153	  0.000000
0.991000	  0.000000	  0.000000	  0.000000	  0.754308	  0.000000	 -0.285820	  0.000000	  0.000000	  0.000000	189.896654	236.640239	-27.175425	  0.313480	  0.011500	 -0.376472	  0.000000	  7.157507	  0.000000
0.991500	  0.000000	  0.000000	  0.000000	  0.756338	  0.000000	 -0.286015	  0.000000	  0.000000	  0.000000	183.556201	225.434283	-25.283166	  0.311484	  0.011500	 -0.376400	  0.000000	  5.886507	  0.000000
0.992000	  0.000000	  0.000000	  0.000000	  0.758368	  0.000000	 -0.286211	  0.000000	  0.000000	  0.000000	177.256224	214.468504	-23.472682	  0.309581	  0.011500	 -0.376326	  0.000000	  4.685853	  0.000000
0.992500	  0.000000	  0.000000	  0.000000	  0.760398	  0.000000	 -0.286407	  0.000000	  0.000000	  0.000000	171.007731	203.749446	-21.748166	  0.316749	  0.010455	 -0.374909	  0.000000	  3.556714	  0.000000
0.993000	  0.000000	  0.000000	  0.000000	  0.762427	  0.000000	 -0.286603	  0.000000	  0.000000	  0.000000	164.821317	193.283694	-20.113260	  0.323917	  0.009409	 -0.373492	  0.000000	  2.499806	  0.000000
0.993500	  0.000000	  0.000000	  0.000000	  0.764457	  0.000000	 -0.286799	  0.000000	  0.000000	  0.000000	158.707116	183.077314	-18.571069	  0.331085	  0.008364	 -0.372075	  0.000000	  1.515461	  0.000000
0.994000	  0.000000	  0.000000	  0.000000	  0.766487	  0.000000	 -0.286994	  0.000000	  0.000000	  0.000000	152.674761	173.135510	-17.124182	  0.338253	  0.007318	 -0.370658	  0.000000	  0.603669	  0.000000
0.994500	  0.000000	  0.000000	  0.000000	  0.768516	  0.000000	 -0.287190	  0.000000	  0.000000	  0.000000	146.733375	163.462581	-15.774689	  0.345421	  0.006273	 -0.369241	  0.000000	 -0.235869	  0.000000
0.995000	  0.000000	  0.000000	  0.000000	  0.770546	  0.000000	 -0.287386	  0.000000	  0.000000	  0.000000	140.891554	154.061974	-14.524185	  0.352588	  0.005227	 -0.367824	  0.000000	 -1.003704	  0.000000
0.995500	  0.000000	  0.000000	  0.000000	  0.772592	  0.000000	 -0.287534	  0.000000	  0.000000	  0.000000	135.157362	144.936327	-13.373767	  0.359756	  0.004182	 -0.366407	  0.000000	 -1.700593	  0.000000
0.996000	  0.000000	  0.000000	  0.000000	  0.774638	  0.000000	 -0.287682	  0.000000	  0.000000	  0.000000	129.538311	136.087515	-12.324010	  0.366924	  0.003136	 -0.364989	  0.000000	 -2.327470	  0.000000
0.996500	  0.000000	  0.000000	  0.000000	  0.776684	  0.000000	 -0.287829	  0.000000	  0.000000	  0.000000	124.041317	127.516701	-11.374948	  0.374092	  0.002091	 -0.363572	  0.000000	 -2.885433	  0.000000
0.997000	  0.000000	  0.000000	  0.000000	  0.778730	  0.000000	 -0.287977	  0.000000	  0.000000	  0.000000	118.672659	119.224373	-10.526045	  0.381260	  0.001045	 -0.362155	  0.000000	 -3.375750	  0.000000
